# xmcd
#
# Track frame offsets:
#	150
#	24123
#	38282
#	66902
#	82749
#	92259
#	110674
#	135598
#	152623
#	218914
#
# Disc length: 3102 seconds
#
# Revision: 0
# Processed by: cddbd v1.5.2PL0 Copyright (c) Steve Scherf et al.
# Submitted via: audiograbber 1.83.01
#
DISCID=6a0c1c0a
DTITLE=Ewigheim - Bereue nichts
DYEAR=2012
DGENRE=Metal
TTITLE0=Heimkehr/Bereue nichts
TTITLE1=Staubfrei
TTITLE2=Stahl trifft Kopf
TTITLE3=Morgenrot
TTITLE4=Schatten
TTITLE5=Schmutzengel
TTITLE6=Was bleibt...
TTITLE7=Durrer Mann
TTITLE8=Der letzte Mensch
TTITLE9=Mal ehrlich (Bonus)
EXTD=
EXTT0=
EXTT1=
EXTT2=
EXTT3=
EXTT4=
EXTT5=
EXTT6=
EXTT7=
EXTT8=
EXTT9=
PLAYORDER=
